<?xml version="1.0" standalone="no"?>
<!DOCTYPE svg PUBLIC "-//W3C//DTD SVG 1.1//EN" "http://www.w3.org/Graphics/SVG/1.1/DTD/svg11.dtd" >
<svg xmlns="http://www.w3.org/2000/svg" xmlns:xlink="http://www.w3.org/1999/xlink" version="1.1">
<metadata>
Created by FontForge 20161003 at Mon May 29 16:23:10 2017
 By www-data
Copyright (c) 2008 by Francisco Galvez &#38; Rodrigo Ramirez. All rights reserved.
</metadata>
<defs>
<font id="CatalogoGruesa" horiz-adv-x="567" >
  <font-face 
    font-family="Catalogo Gruesa"
    font-weight="400"
    font-stretch="normal"
    units-per-em="1000"
    panose-1="0 0 4 0 0 0 0 0 0 0"
    ascent="820"
    descent="-180"
    x-height="488"
    cap-height="678"
    bbox="-85 -256 1128 980"
    underline-thickness="30"
    underline-position="-148"
    unicode-range="U+0020-FB02"
  />
<missing-glyph horiz-adv-x="354" 
 />
    <glyph glyph-name=".notdef" horiz-adv-x="354" 
 />
    <glyph glyph-name="exclam" unicode="!" horiz-adv-x="256" 
d="M198 210h-142l-10 468h162zM40 75v5c0 56 43 85 88 85s88 -29 88 -85v-5c0 -55 -43 -84 -88 -84s-88 29 -88 84z" />
    <glyph glyph-name="quotedbl" unicode="&#x22;" horiz-adv-x="451" 
d="M183 417h-146l-5 261h156zM384 417h-146l-5 261h156z" />
    <glyph glyph-name="numbersign" unicode="#" horiz-adv-x="580" 
d="M86 128h-53l32 126h51l21 87h-57l28 126h59l30 124h123l-30 -124h80l30 124h123l-30 -124h52l-28 -126h-54l-21 -87h59l-32 -126h-57l-26 -111h-123l26 111h-80l-26 -111h-123zM260 341l-21 -87h80l21 87h-80z" />
    <glyph glyph-name="dollar" unicode="$" horiz-adv-x="580" 
d="M532 423l-161 -16c-10 26 -39 44 -82 44c-45 0 -71 -16 -71 -38c0 -68 313 32 313 -177c0 -58 -54 -134 -166 -159l5 -86h-156l4 83c-104 19 -162 81 -170 159l161 10c1 -27 37 -49 84 -49c44 0 74 13 74 41c0 68 -308 -33 -308 190c0 64 58 126 159 146l-4 84h156
l-5 -84c101 -20 152 -81 167 -148z" />
    <glyph glyph-name="percent" unicode="%" horiz-adv-x="580" 
d="M565 612l-279 -337l-81 -275h-178v68l260 289l100 321h178v-66zM152 326c-98 0 -139 61 -139 160v25c0 104 46 158 139 158c99 0 141 -60 141 -158v-25c0 -88 -48 -160 -141 -160zM186 481v33c0 37 -6 59 -34 59c-29 0 -34 -22 -34 -59v-33c0 -38 4 -59 34 -59
c28 0 34 23 34 59zM426 -18c-98 0 -134 61 -134 160v25c0 91 41 158 134 158c99 0 141 -60 141 -158v-25c0 -104 -48 -160 -141 -160zM460 137v33c0 37 -6 59 -34 59c-29 0 -34 -22 -34 -59v-33c0 -38 4 -59 34 -59c28 0 34 23 34 59z" />
    <glyph glyph-name="ampersand" unicode="&#x26;" horiz-adv-x="738" 
d="M280 -9c-118 0 -242 63 -242 209c0 88 57 137 123 175l-30 21c-35 24 -60 72 -61 134c-1 91 77 157 210 157c141 0 215 -73 215 -156c0 -81 -43 -129 -96 -165l62 -41c31 58 92 87 179 87h72v-133h-59c-32 0 -52 -15 -57 -43l117 -77v-168l-169 117
c-56 -71 -152 -117 -264 -117zM207 207c0 -53 36 -79 99 -79c46 0 89 22 123 60l-155 108c-39 -23 -67 -49 -67 -89zM349 521c0 43 -27 63 -68 63c-38 0 -66 -20 -67 -58c-1 -20 10 -44 32 -58l41 -27c36 22 62 46 62 80z" />
    <glyph glyph-name="quotesingle" unicode="'" horiz-adv-x="240" 
d="M183 417h-146l-5 261h156z" />
    <glyph glyph-name="parenleft" unicode="(" horiz-adv-x="360" 
d="M340 -168h-177c-84 131 -131 282 -131 451c0 170 47 320 131 451h177c-86 -131 -129 -281 -129 -451s43 -320 129 -451z" />
    <glyph glyph-name="parenright" unicode=")" horiz-adv-x="360" 
d="M180 -168h-177c86 131 129 281 129 451s-43 320 -129 451h177c84 -131 131 -281 131 -451c0 -169 -47 -320 -131 -451z" />
    <glyph glyph-name="asterisk" unicode="*" horiz-adv-x="368" 
d="M356 471l-53 -92l-71 47l5 -85h-106l5 85l-71 -47l-53 92l76 38l-76 39l53 92l71 -48l-5 86h106l-5 -86l71 48l53 -92l-77 -39z" />
    <glyph glyph-name="plus" unicode="+" horiz-adv-x="503" 
d="M309 218v-141h-125v141h-139v125h139v137h125v-137h139v-125h-139z" />
    <glyph glyph-name="comma" unicode="," horiz-adv-x="269" 
d="M55 63v106h176v-124c0 -18 -3 -43 -11 -60l-70 -151l-150 52l49 126c7 17 6 37 6 51z" />
    <glyph glyph-name="period" unicode="." horiz-adv-x="256" 
d="M40 0v169h176v-169h-176z" />
    <glyph glyph-name="slash" unicode="/" horiz-adv-x="409" 
d="M434 694l-321 -694h-158l321 694h158z" />
    <glyph glyph-name="zero" unicode="0" horiz-adv-x="594" 
d="M298 -9c-162 0 -265 89 -265 227v209c0 145 111 228 265 228c163 0 263 -92 263 -228v-209c0 -145 -108 -227 -263 -227zM396 239v171c0 70 -46 100 -100 100c-59 0 -98 -31 -98 -100v-171c0 -66 42 -100 98 -100c57 0 100 34 100 100z" />
    <glyph glyph-name="one" unicode="1" horiz-adv-x="500" 
d="M402 0h-163v469l-189 -113v165l195 125h157v-646z" />
    <glyph glyph-name="two" unicode="2" horiz-adv-x="590" 
d="M224 132l2 -2c20 8 43 11 76 11h240v-141h-502c0 380 336 333 336 455c0 35 -26 61 -91 61c-67 0 -100 -25 -100 -75l-153 15c0 107 89 199 265 199c177 0 255 -85 255 -174c0 -246 -309 -210 -328 -349z" />
    <glyph glyph-name="three" unicode="3" horiz-adv-x="580" 
d="M26 211l167 16c0 -73 40 -93 92 -93c55 0 90 22 90 74c0 44 -43 64 -109 64h-49v125h64c46 0 84 16 84 57c0 35 -35 61 -89 61c-61 0 -101 -27 -101 -73l-150 13c0 143 129 200 264 200c169 0 246 -77 246 -159c0 -88 -47 -140 -129 -157v-4c85 -8 144 -54 144 -139
c0 -125 -82 -205 -273 -205c-130 0 -251 67 -251 220z" />
    <glyph glyph-name="four" unicode="4" horiz-adv-x="609" 
d="M518 295h61v-137h-61v-158h-162v158h-331v90l147 398h150l-117 -351h151v351h162v-351z" />
    <glyph glyph-name="five" unicode="5" horiz-adv-x="589" 
d="M196 418l4 -2c32 21 72 33 129 33c132 0 226 -75 226 -208c0 -151 -91 -250 -264 -250c-146 0 -259 67 -259 203l167 16c0 -49 32 -77 89 -77c69 0 98 38 98 102c0 54 -39 81 -99 81c-50 0 -83 -14 -102 -47l-134 -1l18 378h451v-135l-314 8z" />
    <glyph glyph-name="six" unicode="6" horiz-adv-x="582" 
d="M308 655c148 0 226 -65 236 -189l-149 -21c-1 39 -30 65 -91 65c-64 0 -114 -38 -113 -150l4 -2c23 19 71 41 145 41c106 0 212 -51 212 -181c0 -151 -112 -227 -250 -227c-157 0 -264 75 -264 327c0 239 116 337 270 337zM302 285c-59 0 -100 -27 -100 -74
c0 -62 37 -91 101 -91c59 0 97 33 97 91c0 47 -34 74 -98 74z" />
    <glyph glyph-name="seven" unicode="7" horiz-adv-x="568" 
d="M248 0h-176l256 508h-297v138h535z" />
    <glyph glyph-name="eight" unicode="8" horiz-adv-x="596" 
d="M297 532c-57 0 -86 -25 -86 -63c0 -42 31 -71 86 -71s88 29 88 71c0 38 -29 63 -88 63zM297 271c-64 0 -99 -24 -99 -69c0 -56 30 -78 99 -78s101 22 101 78c0 45 -34 69 -101 69zM297 655c163 0 250 -67 250 -159c0 -67 -42 -128 -117 -145v-5c85 -18 132 -78 132 -157
c0 -133 -92 -198 -266 -198c-173 0 -262 65 -262 198c0 77 53 139 134 157v5c-75 17 -119 78 -119 145c0 92 88 159 248 159z" />
    <glyph glyph-name="nine" unicode="9" horiz-adv-x="583" 
d="M276 -9c-153 0 -231 92 -239 198l152 21c4 -40 29 -76 90 -76c72 0 117 48 109 151l-4 2s-52 -41 -143 -41c-107 0 -211 56 -211 188c0 151 110 221 250 221c162 0 268 -65 268 -317c0 -238 -109 -347 -272 -347zM282 359c59 0 100 27 100 74c0 58 -37 91 -101 91
c-58 0 -97 -28 -97 -85c0 -50 34 -80 98 -80z" />
    <glyph glyph-name="colon" unicode=":" horiz-adv-x="256" 
d="M40 320v168h176v-168h-176zM40 0v169h176v-169h-176z" />
    <glyph glyph-name="semicolon" unicode=";" horiz-adv-x="267" 
d="M53 320v167h176v-167h-176zM55 63v106h174v-124c0 -18 -1 -43 -9 -60l-70 -151l-150 52l49 126c7 17 6 37 6 51z" />
    <glyph glyph-name="less" unicode="&#x3c;" horiz-adv-x="535" 
d="M486 -8l-445 180v147l445 179v-153l-299 -100l299 -100v-153z" />
    <glyph glyph-name="equal" unicode="=" horiz-adv-x="523" 
d="M35 406h433v-125h-433v125zM35 203h433v-125h-433v125z" />
    <glyph glyph-name="greater" unicode="&#x3e;" horiz-adv-x="535" 
d="M486 172l-445 -180v153l299 100l-299 100v153l445 -179v-147z" />
    <glyph glyph-name="question" unicode="?" horiz-adv-x="511" 
d="M291 212h-140c-40 199 149 206 149 295c0 39 -27 60 -74 60c-52 0 -82 -31 -93 -77l-151 20c13 103 105 186 256 186c175 0 243 -78 243 -155c0 -189 -215 -169 -190 -329zM132 79v-4c0 -55 43 -84 88 -84s88 29 88 84v4c0 56 -43 85 -88 85s-88 -29 -88 -85z" />
    <glyph glyph-name="at" unicode="@" horiz-adv-x="800" 
d="M536 26l41 -79c-45 -28 -123 -53 -198 -53c-211 0 -363 145 -363 345c0 217 180 354 386 354c211 0 382 -126 382 -317c0 -154 -106 -217 -186 -217c-67 0 -109 29 -114 82h-4c-17 -50 -66 -80 -114 -80c-100 0 -180 57 -180 177c0 127 89 181 180 181
c50 0 89 -17 107 -41l-4 31h104v-184c0 -33 11 -63 36 -63c32 0 58 36 58 110c0 136 -120 224 -266 224c-155 0 -277 -103 -277 -257c0 -140 90 -253 255 -253c55 0 118 15 157 40zM380 311c-42 0 -66 -37 -66 -73c0 -40 24 -70 66 -70c44 0 72 33 72 70c0 44 -25 73 -72 73
z" />
    <glyph glyph-name="A" unicode="A" horiz-adv-x="697" 
d="M199 141l-60 -141h-174l314 678h148l305 -678h-199l-58 141h-276zM340 469l-84 -195h164z" />
    <glyph glyph-name="B" unicode="B" horiz-adv-x="697" 
d="M634 512c0 -87 -65 -136 -128 -152v-4c75 -6 161 -58 161 -154c0 -128 -102 -202 -237 -202h-375v678h340c160 0 239 -62 239 -166zM392 283h-174v-143h174c59 0 102 26 102 73c0 51 -46 70 -102 70zM218 539v-129h160c60 0 93 27 93 68c0 37 -33 61 -93 61h-160z" />
    <glyph glyph-name="C" unicode="C" horiz-adv-x="722" 
d="M550 239l148 -59s-69 -189 -302 -189c-241 0 -366 149 -366 348c0 211 136 348 362 348c263 0 313 -202 313 -202l-161 -48s-27 93 -157 93c-126 0 -184 -78 -184 -191c0 -120 72 -192 187 -192c119 0 160 92 160 92z" />
    <glyph glyph-name="D" unicode="D" horiz-adv-x="741" 
d="M370 0h-315v678h315c199 0 343 -123 343 -335c0 -210 -144 -343 -343 -343zM357 536h-137v-395h137c107 0 180 75 180 201c0 120 -80 194 -180 194z" />
    <glyph glyph-name="E" unicode="E" horiz-adv-x="617" 
d="M587 0h-532v678h527v-139h-364v-127h313v-139h-313v-132h369v-141z" />
    <glyph glyph-name="F" unicode="F" horiz-adv-x="553" 
d="M218 0h-163v678h495v-139h-332v-122h273v-139h-273v-278z" />
    <glyph glyph-name="G" unicode="G" horiz-adv-x="754" 
d="M722 382v-77c0 -171 -135 -314 -335 -314c-226 0 -357 147 -357 348c0 211 135 348 363 348c188 0 282 -104 314 -202l-163 -48s-27 93 -159 93c-122 0 -182 -78 -182 -191c0 -123 79 -192 185 -192c82 0 150 42 161 108l-160 -4v131h333z" />
    <glyph glyph-name="H" unicode="H" horiz-adv-x="752" 
d="M696 0h-161v278h-317v-278h-163v678h163v-260h317v260h161v-678z" />
    <glyph glyph-name="I" unicode="I" horiz-adv-x="292" 
d="M227 0h-162v678h162v-678z" />
    <glyph glyph-name="J" unicode="J" horiz-adv-x="545" 
d="M237 -9c-141 0 -237 88 -237 222h157c0 -45 24 -83 80 -83c58 0 85 28 85 91v457h162v-451c0 -156 -91 -236 -247 -236z" />
    <glyph glyph-name="K" unicode="K" horiz-adv-x="679" 
d="M217 0h-162v678h162v-275l251 275h217l-312 -305l344 -373h-228l-222 269l-50 -49v-220z" />
    <glyph glyph-name="L" unicode="L" horiz-adv-x="589" 
d="M579 0h-524v678h163v-538h361v-140z" />
    <glyph glyph-name="M" unicode="M" horiz-adv-x="955" 
d="M900 0h-176l13 452l-196 -452h-138l-192 452l15 -452h-171v678h242l183 -437l180 437h240v-678z" />
    <glyph glyph-name="N" unicode="N" horiz-adv-x="752" 
d="M702 0h-168l-317 406l1 -406h-163v678h169l318 -407l-1 407h161v-678z" />
    <glyph glyph-name="O" unicode="O" horiz-adv-x="757" 
d="M378 -9c-205 0 -346 139 -346 348c0 219 147 348 346 348c192 0 347 -121 347 -348c0 -210 -147 -348 -347 -348zM378 530c-114 0 -180 -76 -180 -191c0 -118 73 -191 180 -191c106 0 182 73 182 191c0 121 -79 191 -182 191z" />
    <glyph glyph-name="P" unicode="P" horiz-adv-x="633" 
d="M357 264h-139v-264h-163v678h302c149 0 255 -72 255 -195c0 -129 -85 -219 -255 -219zM218 541v-146h136c59 0 93 31 93 76c0 41 -36 70 -93 70h-136z" />
    <glyph glyph-name="Q" unicode="Q" horiz-adv-x="761" 
d="M736 -143h-118c-120 0 -189 48 -214 135c-8 -1 -19 -1 -26 -1c-205 0 -346 139 -346 348c0 219 147 348 346 348c192 0 347 -121 347 -348c0 -135 -65 -255 -163 -292v-7c10 -20 42 -40 93 -40h81v-143zM378 530c-114 0 -180 -76 -180 -191c0 -118 73 -191 180 -191
c106 0 182 73 182 191c0 121 -79 191 -182 191z" />
    <glyph glyph-name="R" unicode="R" horiz-adv-x="684" 
d="M397 283h-179v-283h-163v678h344c149 0 252 -54 252 -174c0 -69 -52 -127 -118 -145v-5c77 -20 113 -73 113 -136v-218h-172v212c0 48 -29 71 -77 71zM218 545v-137h165c57 0 93 27 93 72c0 41 -36 65 -93 65h-165z" />
    <glyph glyph-name="S" unicode="S" horiz-adv-x="653" 
d="M10 202l174 20c11 -57 66 -89 140 -89c75 0 122 25 122 64c0 134 -416 -8 -416 291c0 112 105 199 300 199c190 0 277 -81 290 -195l-183 -20c-8 44 -46 68 -117 68c-81 0 -111 -22 -111 -58c0 -138 424 5 424 -271c0 -129 -118 -220 -304 -220c-192 0 -300 76 -319 211z
" />
    <glyph glyph-name="T" unicode="T" horiz-adv-x="575" 
d="M590 539h-218v-539h-163v539h-224v139h605v-139z" />
    <glyph glyph-name="U" unicode="U" horiz-adv-x="699" 
d="M45 277v401h165v-394c0 -87 35 -137 137 -137c109 0 141 48 141 137v394h164v-403c0 -173 -99 -284 -306 -284c-206 0 -301 111 -301 286z" />
    <glyph glyph-name="V" unicode="V" horiz-adv-x="687" 
d="M727 678l-301 -678h-174l-292 678h208l184 -492l181 492h194z" />
    <glyph glyph-name="X" unicode="X" horiz-adv-x="653" 
d="M315 233l-126 -233h-205l230 341l-230 337h202l147 -229l125 229h205l-228 -337l234 -341h-202z" />
    <glyph glyph-name="Y" unicode="Y" horiz-adv-x="640" 
d="M-40 678h200l168 -301l171 301h181l-278 -461v-217h-162v217z" />
    <glyph glyph-name="Z" unicode="Z" horiz-adv-x="647" 
d="M625 0h-602v124l365 414h-345v140h578v-126l-365 -412h369v-140z" />
    <glyph glyph-name="bracketleft" unicode="[" horiz-adv-x="321" 
d="M305 -173h-255v912h255v-133h-92v-646h92v-133z" />
    <glyph glyph-name="backslash" unicode="\" horiz-adv-x="409" 
d="M276 0l-321 694h158l321 -694h-158z" />
    <glyph glyph-name="bracketright" unicode="]" horiz-adv-x="321" 
d="M271 -173h-255v133h92v646h-92v133h255v-912z" />
    <glyph glyph-name="asciicircum" unicode="^" horiz-adv-x="474" 
d="M434 570h-178l-41 60l-40 -60h-155l121 164h169z" />
    <glyph glyph-name="underscore" unicode="_" horiz-adv-x="525" 
d="M1 20h525v-125h-525v125z" />
    <glyph glyph-name="grave" unicode="`" horiz-adv-x="268" 
d="M92 790l187 -172l-73 -89l-206 149z" />
    <glyph glyph-name="a" unicode="a" horiz-adv-x="621" 
d="M566 0h-155c-2 20 -2 38 0 62l-6 2c-16 -34 -65 -73 -134 -73c-141 0 -246 97 -246 255c0 160 109 254 255 254c63 0 120 -42 132 -67l6 3c-5 18 -6 34 -5 52h153v-488zM293 360c-71 0 -105 -50 -105 -114c0 -69 34 -117 105 -117c78 0 109 47 109 117
c0 64 -31 114 -109 114z" />
    <glyph glyph-name="b" unicode="b" horiz-adv-x="621" 
d="M210 0h-155v678h155v-201c0 -15 -3 -30 -7 -41l6 -3c26 35 74 67 155 67c143 0 232 -94 232 -254c0 -158 -96 -255 -242 -255c-75 0 -122 40 -138 73l-6 -2c2 -24 2 -42 0 -62zM327 360c-78 0 -109 -50 -109 -114c0 -70 31 -117 109 -117c71 0 105 48 105 117
c0 64 -34 114 -105 114z" />
    <glyph glyph-name="c" unicode="c" horiz-adv-x="557" 
d="M390 196l147 -17c-28 -121 -113 -188 -252 -188c-161 0 -257 109 -257 255c0 149 97 254 263 254c144 0 230 -76 246 -190l-145 -27c-10 46 -42 77 -108 77c-64 0 -104 -44 -104 -114c0 -71 37 -117 104 -117c61 0 92 28 106 67z" />
    <glyph glyph-name="d" unicode="d" horiz-adv-x="621" 
d="M566 0h-155c-2 20 -2 38 0 62l-6 2c-19 -33 -64 -73 -142 -73c-146 0 -238 97 -238 255c0 160 89 254 232 254c82 0 130 -32 155 -67l6 3c-4 11 -7 26 -7 41v201h155v-678zM294 360c-71 0 -105 -50 -105 -114c0 -69 34 -117 105 -117c78 0 109 47 109 117
c0 64 -31 114 -109 114z" />
    <glyph glyph-name="e" unicode="e" 
d="M282 129c52 0 81 18 96 44l149 -27c-29 -86 -108 -155 -247 -155c-145 0 -255 98 -255 255c0 147 96 254 262 254c173 0 263 -126 254 -297l-359 -1c14 -46 51 -73 100 -73zM181 287l204 1c-8 36 -36 72 -102 72c-51 0 -88 -28 -102 -73z" />
    <glyph glyph-name="f" unicode="f" horiz-adv-x="356" 
d="M242 501v-13h117v-122h-117v-366h-160v366h-67v122h67v27c0 97 80 187 245 187c20 0 64 -5 64 -5v-140c-76 13 -149 0 -149 -56z" />
    <glyph glyph-name="g" unicode="g" horiz-adv-x="620" 
d="M296 359c-65 0 -104 -46 -104 -112c0 -60 38 -105 104 -105c64 0 107 45 107 105c0 68 -41 112 -107 112zM58 -129l43 120c39 -21 111 -40 169 -40c76 0 153 37 153 145l-6 2c-21 -58 -86 -89 -150 -89c-122 0 -242 73 -242 237c0 154 100 254 255 254
c58 0 116 -27 141 -75l6 3c-8 19 -10 42 -9 60l147 3v-418c0 -138 -99 -257 -270 -257c-105 0 -196 30 -237 55z" />
    <glyph glyph-name="h" unicode="h" horiz-adv-x="603" 
d="M553 0h-160v296c0 36 -23 68 -86 68c-61 0 -92 -32 -92 -68v-296h-160v678h157v-195c0 -24 -2 -37 -4 -46l4 -2c23 33 76 65 158 65c125 0 183 -78 183 -168v-332z" />
    <glyph glyph-name="i" unicode="i" horiz-adv-x="286" 
d="M223 0h-160v488h160v-488zM60 612v10c0 53 41 80 83 80s83 -27 83 -80v-10c0 -52 -41 -79 -83 -79s-83 27 -83 79z" />
    <glyph glyph-name="j" unicode="j" horiz-adv-x="294" 
d="M-4 -211l-39 133c71 6 109 35 109 80v486h160v-487c0 -121 -102 -205 -230 -212zM63 611v10c0 53 41 80 83 80s83 -27 83 -80v-10c0 -52 -41 -79 -83 -79s-83 27 -83 79z" />
    <glyph glyph-name="k" unicode="k" horiz-adv-x="577" 
d="M215 321l153 167h204l-213 -195l233 -293h-207l-132 191h-38v-191h-160v678h160v-357z" />
    <glyph glyph-name="l" unicode="l" horiz-adv-x="280" 
d="M220 0h-160v678h160v-678z" />
    <glyph glyph-name="m" unicode="m" horiz-adv-x="881" 
d="M505 418c24 44 82 82 154 82c125 0 172 -78 172 -168v-332h-160v296c0 36 -15 68 -75 68c-53 0 -72 -29 -73 -63v-301h-160v296c0 36 -14 68 -75 68c-56 0 -73 -32 -73 -68v-296h-160v488h157c1 -16 -1 -35 -4 -51l4 -2c23 33 57 65 139 65s130 -34 154 -82z" />
    <glyph glyph-name="n" unicode="n" horiz-adv-x="603" 
d="M553 0h-160v296c0 36 -23 68 -86 68c-61 0 -92 -32 -92 -68v-296h-160v488h157c1 -16 -1 -35 -4 -51l4 -2c23 33 76 65 158 65c125 0 183 -78 183 -168v-332z" />
    <glyph glyph-name="o" unicode="o" 
d="M282 -9c-153 0 -257 108 -257 253c0 151 102 256 257 256c177 0 260 -105 260 -256c0 -145 -83 -253 -260 -253zM282 360c-65 0 -105 -38 -105 -116c0 -75 40 -115 105 -115c68 0 109 40 109 115c0 78 -41 116 -109 116z" />
    <glyph glyph-name="p" unicode="p" horiz-adv-x="621" 
d="M210 -180h-155v668h155v-11c0 -15 -3 -30 -7 -41l6 -3c25 35 73 67 155 67c143 0 232 -94 232 -254c0 -158 -96 -255 -242 -255c-78 0 -125 40 -142 73l-6 -2c3 -17 4 -31 4 -62v-180zM327 360c-78 0 -109 -50 -109 -114c0 -70 31 -117 109 -117c71 0 105 48 105 117
c0 64 -34 114 -105 114z" />
    <glyph glyph-name="q" unicode="q" horiz-adv-x="631" 
d="M566 -180h-156v195c0 17 1 33 4 47l-6 2c-20 -33 -65 -73 -145 -73c-146 0 -238 97 -238 255c0 160 94 254 235 254c82 0 127 -32 152 -67l6 3c-4 11 -7 32 -7 52h155v-668zM294 359c-70 0 -104 -50 -104 -113c0 -68 34 -116 104 -116c77 0 108 47 108 116
c0 63 -31 113 -108 113z" />
    <glyph glyph-name="r" unicode="r" horiz-adv-x="368" 
d="M362 500v-156s-18 2 -38 2c-69 0 -109 -37 -109 -89v-257h-160v488h157c0 -26 -4 -45 -11 -63l6 -3c29 52 85 77 155 78z" />
    <glyph glyph-name="s" unicode="s" horiz-adv-x="534" 
d="M497 347l-161 -16c-10 26 -34 42 -77 42c-45 0 -69 -16 -69 -38c0 -68 317 32 317 -177c0 -70 -78 -167 -245 -167c-146 0 -227 71 -237 164l161 10c1 -27 37 -49 84 -49c44 0 79 13 79 41c0 68 -312 -33 -312 190c0 78 85 153 228 153c153 0 214 -70 232 -153z" />
    <glyph glyph-name="t" unicode="t" horiz-adv-x="373" 
d="M361 358h-113v-159c0 -66 59 -80 113 -48v-127c-24 -18 -68 -33 -131 -33c-83 0 -142 66 -142 178v189h-72v125h72v131h160v-131h113v-125z" />
    <glyph glyph-name="u" unicode="u" horiz-adv-x="595" 
d="M540 0h-147l-9 71h-3c-21 -45 -65 -80 -140 -80c-106 0 -196 62 -196 199v298h160v-275c0 -48 33 -78 87 -78c56 0 87 30 87 78v275h161v-488z" />
    <glyph glyph-name="v" unicode="v" horiz-adv-x="516" 
d="M551 488l-216 -488h-143l-227 488h188l118 -321l107 321h173z" />
    <glyph glyph-name="x" unicode="x" horiz-adv-x="542" 
d="M159 244l-170 244h201l78 -140l73 140h209l-183 -233l200 -255h-207l-94 146l-83 -146h-208z" />
    <glyph glyph-name="y" unicode="y" horiz-adv-x="603" 
d="M408 97l-6 2c-21 -59 -78 -89 -155 -89c-109 0 -194 61 -194 198v280h160v-261c0 -48 30 -73 86 -73c59 0 88 25 88 73v261h161v-408c0 -154 -109 -265 -269 -265c-92 0 -190 25 -229 55l42 125c35 -21 110 -38 171 -38c90 0 145 39 145 140z" />
    <glyph glyph-name="z" unicode="z" horiz-adv-x="514" 
d="M503 0h-472v112l226 244h-215v132h449v-111l-228 -245h240v-132z" />
    <glyph glyph-name="braceleft" unicode="{" horiz-adv-x="350" 
d="M325 -178h-99c-57 0 -105 34 -105 101v205c0 71 -18 88 -76 112v67c65 27 76 45 76 111v185c0 67 48 121 105 121h99v-123h-18c-39 0 -50 -16 -50 -52v-143c0 -60 -14 -107 -65 -133c57 -30 65 -72 65 -133v-142c0 -44 15 -53 50 -53h18v-123z" />
    <glyph glyph-name="bar" unicode="|" horiz-adv-x="320" 
d="M232 -42h-162v758h162v-758z" />
    <glyph glyph-name="braceright" unicode="}" horiz-adv-x="350" 
d="M114 -178h-99v123h18c35 0 50 9 50 53v142c0 61 8 103 65 133c-51 26 -65 73 -65 133v143c0 36 -11 52 -50 52h-18v123h99c57 0 105 -54 105 -121v-185c0 -66 11 -84 76 -111v-67c-58 -24 -76 -41 -76 -112v-205c0 -67 -48 -101 -105 -101z" />
    <glyph glyph-name="asciitilde" unicode="~" horiz-adv-x="574" 
d="M182 226h-121c-28 106 47 170 134 155l149 -30c26 -5 43 9 36 33h121c31 -102 -39 -170 -125 -156l-159 30c-24 4 -40 -13 -35 -32z" />
    <glyph glyph-name="exclamdown" unicode="&#xa1;" horiz-adv-x="256" 
d="M58 281h142l10 -460h-162zM216 416v-5c0 -56 -43 -85 -88 -85s-88 29 -88 85v5c0 55 43 84 88 84s88 -29 88 -84z" />
    <glyph glyph-name="yen" unicode="&#xa5;" horiz-adv-x="580" 
d="M445 358h99v-105h-161l-1 -2v-48h162v-105h-162v-98h-162v98h-157v105h157v50h-157v105h94l-173 288h186l132 -248l139 248h175z" />
    <glyph glyph-name="brokenbar" unicode="&#xa6;" horiz-adv-x="311" 
d="M228 373h-162v343h162v-343zM228 -43h-162v343h162v-343z" />
    <glyph glyph-name="dieresis" unicode="&#xa8;" horiz-adv-x="553" 
d="M60 641v10c0 57 43 85 89 85s89 -28 89 -85v-10c0 -56 -43 -84 -89 -84s-89 28 -89 84zM317 641v10c0 57 43 85 89 85s89 -28 89 -85v-10c0 -56 -43 -84 -89 -84s-89 28 -89 84z" />
    <glyph glyph-name="copyright" unicode="&#xa9;" horiz-adv-x="700" 
d="M54 247c0 167 136 304 303 304s304 -137 304 -304s-137 -303 -304 -303s-303 136 -303 303zM103 247c0 -142 112 -254 254 -254c141 0 255 112 255 254c0 141 -114 255 -255 255c-142 0 -254 -114 -254 -255zM424 214l94 -11c-18 -78 -72 -120 -161 -120
c-103 0 -164 69 -164 163c0 95 62 162 168 162c92 0 147 -48 157 -121l-92 -18c-7 30 -27 50 -70 50c-41 0 -66 -28 -66 -73c0 -46 24 -75 66 -75c39 0 59 18 68 43z" />
    <glyph glyph-name="ordfeminine" unicode="&#xaa;" horiz-adv-x="404" 
d="M378 357h-107c-1 13 -1 26 0 41l-3 1c-13 -21 -47 -46 -89 -46c-90 0 -158 62 -158 163c0 102 70 162 164 162c40 0 79 -27 87 -43l4 2c-3 12 -4 29 -3 41h105v-321zM188 582c-40 0 -60 -29 -60 -66c0 -40 20 -68 60 -68c45 0 63 27 63 68c0 37 -18 66 -63 66z" />
    <glyph glyph-name="guillemotleft" unicode="&#xab;" horiz-adv-x="442" 
d="M246 -10l-214 174v164l214 172v-148l-131 -103l131 -110v-149zM410 56l-190 151v78l190 150v-144l-67 -42l67 -47v-146z" />
    <glyph glyph-name="logicalnot" unicode="&#xac;" horiz-adv-x="603" 
d="M558 74h-163v137h-363v160h526v-297z" />
    <glyph glyph-name="registered" unicode="&#xae;" horiz-adv-x="543" 
d="M15 432c0 141 114 256 255 256s256 -115 256 -256s-115 -255 -256 -255s-255 114 -255 255zM68 432c0 -112 90 -202 202 -202s203 90 203 202s-91 203 -203 203s-202 -91 -202 -203zM231 406h54c19 0 30 -10 30 -29v-84h80v86c0 26 -19 47 -41 53c27 13 44 31 44 62
c0 51 -42 77 -103 77h-141v-278h77v113zM231 459v56h51c23 0 38 -10 38 -27c0 -18 -14 -29 -38 -29h-51z" />
    <glyph glyph-name="degree" unicode="&#xb0;" horiz-adv-x="381" 
d="M191 326c-103 0 -179 71 -179 164c0 96 74 165 179 165c119 0 178 -69 178 -165c0 -93 -59 -164 -178 -164zM191 559c-38 0 -63 -25 -63 -69c0 -43 25 -69 63 -69c39 0 63 26 63 69c0 44 -24 69 -63 69z" />
    <glyph glyph-name="plusminus" unicode="&#xb1;" horiz-adv-x="553" 
d="M341 318v-141h-125v141h-139v125h139v137h125v-137h139v-125h-139zM50 136h463v-125h-463v125z" />
    <glyph glyph-name="acute" unicode="&#xb4;" horiz-adv-x="268" 
d="M0 618l187 172l92 -112l-206 -149z" />
    <glyph glyph-name="paragraph" unicode="&#xb6;" horiz-adv-x="756" 
d="M451 678v-858h-162v425c-151 -3 -244 86 -244 217c0 139 104 216 257 216h149zM691 -180h-152v858h152v-858z" />
    <glyph glyph-name="cedilla" unicode="&#xb8;" horiz-adv-x="305" 
d="M131 -191c-40 0 -103 10 -110 14l17 61c23 -9 51 -14 74 -14c17 0 27 6 27 19c0 11 -8 18 -30 18c-21 0 -43 -4 -52 -6l9 106h102l-2 -39h13c61 0 95 -27 95 -70c0 -57 -58 -89 -143 -89z" />
    <glyph glyph-name="ordmasculine" unicode="&#xba;" horiz-adv-x="399" 
d="M189 353c-98 0 -168 69 -168 162c0 96 68 163 168 163c113 0 169 -67 169 -163c0 -93 -56 -162 -169 -162zM189 582c-38 0 -61 -23 -61 -67c0 -43 23 -67 61 -67c39 0 62 24 62 67c0 44 -23 67 -62 67z" />
    <glyph glyph-name="guillemotright" unicode="&#xbb;" horiz-adv-x="442" 
d="M410 164l-214 -174v149l131 110l-131 103v148l214 -172v-164zM222 207l-190 -151v146l67 47l-67 42v144l190 -150v-78z" />
    <glyph glyph-name="questiondown" unicode="&#xbf;" horiz-adv-x="495" 
d="M200 280h140c40 -199 -149 -194 -149 -283c0 -39 27 -60 74 -60c52 0 82 25 93 71l151 -20c-13 -103 -107 -180 -258 -180c-175 0 -241 78 -241 155c0 174 214 160 190 317zM359 416v-4c0 -56 -43 -85 -88 -85s-88 29 -88 85v4c0 55 43 84 88 84s88 -29 88 -84z" />
    <glyph glyph-name="multiply" unicode="&#xd7;" horiz-adv-x="500" 
d="M327 279l107 -106l-88 -88l-107 106l-105 -105l-89 89l105 105l-103 104l88 88l103 -104l106 106l89 -89z" />
    <glyph glyph-name="germandbls" unicode="&#xdf;" horiz-adv-x="653" 
d="M583 548c0 -112 -122 -139 -122 -185c0 -64 171 -48 171 -208c0 -80 -61 -164 -224 -164c-67 0 -121 15 -121 15l19 119s59 -16 97 -16c37 0 60 11 60 39c0 68 -170 40 -170 185c0 98 115 107 115 172c0 24 -25 43 -81 43c-61 0 -88 -22 -88 -65v-483h-160v361h-67v122
h67v17c0 97 98 187 263 187c168 0 241 -76 241 -139z" />
    <glyph glyph-name="divide" unicode="&#xf7;" horiz-adv-x="553" 
d="M50 355h463v-125h-463v125zM196 487v10c0 57 43 85 89 85s89 -28 89 -85v-10c0 -56 -43 -84 -89 -84s-89 28 -89 84zM196 75v10c0 57 43 85 89 85s89 -28 89 -85v-10c0 -56 -43 -84 -89 -84s-89 28 -89 84z" />
    <glyph glyph-name="florin" unicode="&#x192;" horiz-adv-x="564" 
d="M224 361h-67v122h94l8 32c21 95 76 187 241 187c20 0 64 -5 64 -5v-140c-76 13 -136 -1 -149 -56l-5 -18h101v-122h-130l-35 -144c-42 -177 -141 -259 -346 -259v134c111 0 175 52 196 146z" />
    <glyph glyph-name="circumflex" unicode="&#x2c6;" horiz-adv-x="444" 
d="M434 570h-178l-41 60l-40 -60h-155l121 164h169z" />
    <glyph glyph-name="caron" unicode="&#x2c7;" horiz-adv-x="444" 
d="M10 714h178l41 -60l40 60h155l-121 -164h-169z" />
    <glyph glyph-name="ring" unicode="&#x2da;" horiz-adv-x="370" 
d="M50 655c0 71 59 127 130 127s130 -56 130 -127s-59 -127 -130 -127s-130 56 -130 127zM140 655c0 -22 18 -39 40 -39c20 0 40 17 40 39c0 20 -20 38 -40 38c-22 0 -40 -18 -40 -38z" />
    <glyph glyph-name="tilde" unicode="&#x2dc;" horiz-adv-x="508" 
d="M149 544h-121c-28 106 48 174 134 155l139 -30c26 -6 43 9 36 33h121c31 -102 -40 -173 -125 -156l-149 30c-24 5 -40 -13 -35 -32z" />
    <glyph glyph-name="endash" unicode="&#x2013;" horiz-adv-x="515" 
d="M36 322h443v-125h-443v125z" />
    <glyph glyph-name="emdash" unicode="&#x2014;" horiz-adv-x="978" 
d="M45 322h888v-125h-888v125z" />
    <glyph glyph-name="quoteleft" unicode="&#x2018;" horiz-adv-x="252" 
d="M186 461v-86h-166v104c0 18 5 43 11 60l64 178l145 -44l-48 -161c-5 -17 -6 -37 -6 -51z" />
    <glyph glyph-name="quoteright" unicode="&#x2019;" horiz-adv-x="252" 
d="M66 601v86h166v-104c0 -18 -5 -43 -11 -60l-64 -178l-145 44l48 161c5 17 6 37 6 51z" />
    <glyph glyph-name="quotesinglbase" unicode="&#x201a;" horiz-adv-x="249" 
d="M64 1v86h166v-104c0 -18 -5 -43 -11 -60l-64 -178l-145 44l48 161c5 17 6 37 6 51z" />
    <glyph glyph-name="quotedblleft" unicode="&#x201c;" horiz-adv-x="468" 
d="M419 451v-76h-166v94c0 18 5 42 11 60l50 161l142 -47l-31 -141c-4 -18 -6 -37 -6 -51zM186 461v-86h-166v104c0 18 5 43 11 60l64 178l145 -44l-48 -161c-5 -17 -6 -37 -6 -51z" />
    <glyph glyph-name="quotedblright" unicode="&#x201d;" horiz-adv-x="468" 
d="M49 611v76h166v-94c0 -18 -5 -42 -11 -60l-50 -161l-142 47l31 141c4 18 6 37 6 51zM282 601v86h166v-104c0 -18 -5 -43 -11 -60l-64 -178l-145 44l48 161c5 17 6 37 6 51z" />
    <glyph glyph-name="quotedblbase" unicode="&#x201e;" horiz-adv-x="481" 
d="M47 10v76h166v-94c0 -18 -5 -42 -11 -60l-50 -161l-142 47l31 141c4 18 6 37 6 51zM280 0v86h166v-104c0 -18 -5 -43 -11 -60l-64 -178l-145 44l48 161c5 17 6 37 6 51z" />
    <glyph glyph-name="dagger" unicode="&#x2020;" horiz-adv-x="465" 
d="M433 352h-125v-419h-159v419h-117v147h117v137h159v-137h125v-147z" />
    <glyph glyph-name="daggerdbl" unicode="&#x2021;" horiz-adv-x="465" 
d="M308 352v-171h125v-147h-125v-101h-159v101h-117v147h117v171h-117v147h117v137h159v-137h125v-147h-125z" />
    <glyph glyph-name="bullet" unicode="&#x2022;" horiz-adv-x="360" 
d="M51 263c0 71 58 129 129 129s129 -58 129 -129s-58 -129 -129 -129s-129 58 -129 129z" />
    <glyph glyph-name="ellipsis" unicode="&#x2026;" horiz-adv-x="812" 
d="M40 0v169h176v-169h-176zM307 0v169h176v-169h-176zM577 0v169h176v-169h-176z" />
    <glyph glyph-name="perthousand" unicode="&#x2030;" horiz-adv-x="875" 
d="M570 612l-279 -337l-81 -275h-178v68l260 289l100 321h178v-66zM157 326c-98 0 -139 61 -139 160v25c0 104 46 158 139 158c99 0 141 -60 141 -158v-25c0 -88 -48 -160 -141 -160zM191 481v33c0 37 -6 59 -34 59c-29 0 -34 -22 -34 -59v-33c0 -38 4 -59 34 -59
c28 0 34 23 34 59zM431 -18c-98 0 -134 61 -134 160v25c0 91 41 158 134 158c99 0 141 -60 141 -158v-25c0 -104 -48 -160 -141 -160zM465 137v33c0 37 -6 59 -34 59c-29 0 -34 -22 -34 -59v-33c0 -38 4 -59 34 -59c28 0 34 23 34 59zM734 -18c-98 0 -134 61 -134 160v25
c0 91 41 158 134 158c99 0 141 -60 141 -158v-25c0 -104 -48 -160 -141 -160zM768 137v33c0 37 -6 59 -34 59c-29 0 -34 -22 -34 -59v-33c0 -38 4 -59 34 -59c28 0 34 23 34 59z" />
    <glyph glyph-name="guilsinglleft" unicode="&#x2039;" horiz-adv-x="303" 
d="M270 0l-239 164v164l239 162v-170l-131 -71l131 -83v-166z" />
    <glyph glyph-name="guilsinglright" unicode="&#x203a;" horiz-adv-x="303" 
d="M281 164l-239 -164v166l131 83l-131 71v170l239 -162v-164z" />
    <glyph glyph-name="trademark" unicode="&#x2122;" horiz-adv-x="788" 
d="M746 350h-106v171l-75 -171h-73l-81 171v-171h-103v243h-80v-243h-110v243h-86v94h401l95 -191l93 191h125v-337z" />
    <glyph glyph-name=".null" horiz-adv-x="0" 
 />
    <glyph glyph-name="fi" unicode="&#xfb01;" horiz-adv-x="612" 
d="M237 501v-13h315v-488h-160v361h-155v-361h-160v361h-67v122h67v32c0 97 83 187 255 187c85 0 160 -15 160 -15v-138s-52 13 -132 13c-66 0 -123 -17 -123 -61z" />
    <glyph glyph-name="fl" unicode="&#xfb02;" horiz-adv-x="633" 
d="M573 678v-678h-160v557c-15 3 -60 4 -74 4c-58 0 -102 -16 -102 -60v-18h112v-122h-112v-361h-160v361h-67v122h67v32c0 97 81 187 269 187c99 0 227 -24 227 -24z" />
    <glyph glyph-name="fraction" unicode="&#x2044;" horiz-adv-x="334" 
d="M424 677l-402 -677h-107l400 677h109z" />
    <glyph glyph-name="periodcentered" unicode="&#xb7;" horiz-adv-x="276" 
d="M40 192v169h176v-169h-176z" />
    <glyph glyph-name="W" unicode="W" horiz-adv-x="1088" 
d="M1128 678l-252 -678h-184l-150 424l-158 -424h-184l-240 678h208l135 -485l139 485h218l135 -485l139 485h194z" />
    <glyph glyph-name="w" unicode="w" horiz-adv-x="829" 
d="M864 488l-176 -488h-143l-128 308l-122 -308h-143l-187 488h188l88 -281l87 281h188l98 -281l77 281h173z" />
    <glyph glyph-name="space" unicode=" " horiz-adv-x="270" 
 />
    <glyph glyph-name="hyphen" unicode="-" horiz-adv-x="583" 
d="M65 322h443v-125h-443v125z" />
    <glyph glyph-name="section" unicode="&#xa7;" horiz-adv-x="689" 
d="M441 256l-100 188h102l123 -165c126 -169 30 -333 -214 -333c-174 0 -263 76 -288 187l154 20c18 -46 57 -77 130 -77c101 0 147 79 93 180zM248 414l100 -188h-102l-123 165c-126 169 -30 333 214 333c174 0 263 -76 288 -187l-154 -20c-18 46 -57 77 -130 77
c-102 0 -147 -79 -93 -180z" />
    <glyph glyph-name="dotlessi" unicode="&#x131;" horiz-adv-x="284" 
d="M222 0h-160v488h160v-488z" />
    <glyph glyph-name="Euro" unicode="&#x20ac;" horiz-adv-x="580" 
d="M43 338h-29v82h38c31 154 140 235 285 235c142 0 213 -71 233 -181l-146 -16c-9 34 -39 57 -96 57s-101 -28 -121 -95h240l-30 -82h-222v-35h212l-31 -82h-168c20 -67 62 -92 116 -92c56 0 90 28 99 67l142 -11c-28 -121 -116 -194 -248 -194c-144 0 -238 76 -266 230
h-37v82h29v35z" />
    <glyph glyph-name="AE" unicode="&#xc6;" horiz-adv-x="1017" 
d="M229 132l-90 -132h-174l469 678h548v-139h-336v-122h283v-139h-283v-137h341v-141h-504v132h-254zM483 265v236l-162 -236h162z" />
    <glyph glyph-name="ae" unicode="&#xe6;" horiz-adv-x="964" 
d="M571 0h-155c-2 20 -2 38 0 62l-6 2c-16 -34 -65 -73 -134 -73c-141 0 -246 97 -246 255c0 160 109 254 255 254c63 0 120 -42 132 -67l6 3c-5 18 -6 34 -5 52h153l-4 -33s40 45 117 45c173 0 263 -126 254 -297l-359 -1c14 -46 51 -73 100 -73c52 0 81 18 96 44l149 -27
c-29 -86 -108 -155 -247 -155c-75 0 -110 38 -110 38zM298 360c-71 0 -105 -50 -105 -114c0 -69 34 -117 105 -117c78 0 109 47 109 117c0 64 -31 114 -109 114zM578 287l204 1c-8 36 -36 72 -102 72c-51 0 -88 -28 -102 -73z" />
    <glyph glyph-name="sterling" unicode="&#xa3;" horiz-adv-x="897" 
d="M410 444v34h103v-34h87l170 -180v-260h-643v252l173 188h110zM203 264h210l-105 114zM187 54h238v153h-238v-153zM488 54h227v153h-227v-153zM699 265l-123 130h-215l121 -130h217z" />
    <glyph glyph-name="Omega" unicode="&#x3a9;" horiz-adv-x="1099" 
d="M494 629v48h147v-48h125l243 -257v-371h-919v359l248 269h156zM174 363h335l-168 180zM150 61h377v242h-377v-242zM587 61h362v242h-362v-242zM934 363l-195 206h-341l192 -206h344z" />
    <glyph glyph-name="Omega" unicode="&#x2126;" horiz-adv-x="1099" 
d="M494 629v48h147v-48h125l243 -257v-371h-919v359l248 269h156zM174 363h335l-168 180zM150 61h377v242h-377v-242zM587 61h362v242h-362v-242zM934 363l-195 206h-341l192 -206h344z" />
    <glyph glyph-name="scaron" unicode="&#x161;" horiz-adv-x="536" 
d="M497 347l-161 -16c-10 26 -34 42 -77 42c-45 0 -69 -16 -69 -38c0 -68 317 32 317 -177c0 -70 -78 -167 -245 -167c-146 0 -227 71 -237 164l161 10c1 -27 37 -49 84 -49c44 0 79 13 79 41c0 68 -312 -33 -312 190c0 78 85 153 228 153c153 0 214 -70 232 -153zM65 714
h178l41 -60l40 60h155l-121 -164h-169z" />
    <glyph glyph-name="Scaron" unicode="&#x160;" horiz-adv-x="653" 
d="M6 202l174 20c11 -57 66 -89 140 -89c75 0 122 25 122 64c0 134 -416 -8 -416 291c0 112 105 199 300 199c190 0 277 -81 290 -195l-183 -20c-8 44 -46 68 -117 68c-81 0 -111 -22 -111 -58c0 -138 424 5 424 -271c0 -129 -118 -220 -304 -220c-192 0 -300 76 -319 211z
M128 904h178l41 -60l40 60h155l-121 -164h-169z" />
    <glyph glyph-name="zcaron" unicode="&#x17e;" horiz-adv-x="514" 
d="M497 0h-472v112l226 244h-215v132h449v-111l-228 -245h240v-132zM64 714h178l41 -60l40 60h155l-121 -164h-169z" />
    <glyph glyph-name="Zcaron" unicode="&#x17d;" horiz-adv-x="650" 
d="M623 0h-602v124l365 414h-345v140h578v-126l-365 -412h369v-140zM138 904h178l41 -60l40 60h155l-121 -164h-169z" />
    <glyph glyph-name="Oslash" unicode="&#xd8;" horiz-adv-x="757" 
d="M283 1l-14 -30h-128l36 76c-91 59 -145 162 -145 292c0 219 147 348 346 348c34 0 66 -4 97 -11l14 28h128l-35 -74c86 -56 143 -155 143 -291c0 -210 -147 -348 -347 -348c-34 0 -65 4 -95 10zM378 530c-114 0 -180 -76 -180 -191c0 -60 18 -108 51 -141l156 330
c-9 1 -18 2 -27 2zM378 148c106 0 182 73 182 191c0 59 -19 106 -51 139l-156 -329c8 -1 16 -1 25 -1z" />
    <glyph glyph-name="lozenge" unicode="&#x25ca;" horiz-adv-x="897" 
d="M410 444v34h103v-34h87l170 -180v-260h-643v252l173 188h110zM203 264h210l-105 114zM187 54h238v153h-238v-153zM488 54h227v153h-227v-153zM699 265l-123 130h-215l121 -130h217z" />
    <glyph glyph-name="oslash" unicode="&#xf8;" horiz-adv-x="573" 
d="M214 -1l-22 -46h-98l40 82c-66 44 -106 119 -106 209c0 151 102 256 257 256c26 0 50 -3 72 -7l28 56h98l-43 -87c71 -44 105 -122 105 -218c0 -145 -83 -253 -260 -253c-25 0 -49 3 -71 8zM278 129h7c68 0 109 40 109 115c0 33 -8 59 -22 78zM292 360h-7
c-65 0 -105 -38 -105 -116c0 -31 7 -57 19 -75z" />
    <glyph glyph-name="minus" unicode="&#x2212;" horiz-adv-x="583" 
d="M65 322h463v-125h-463v125z" />
    <glyph glyph-name="OE" unicode="&#x152;" horiz-adv-x="1117" 
d="M1094 0h-534c-50 0 -114 -9 -182 -9c-205 0 -346 139 -346 348c0 219 147 348 346 348c50 0 128 -9 182 -9h529v-139h-367v-122h314v-139h-314v-137h372v-141zM378 527c-114 0 -180 -73 -180 -188c0 -118 73 -188 180 -188c103 0 178 66 182 179v9
c0 121 -79 188 -182 188z" />
    <glyph glyph-name="oe" unicode="&#x153;" horiz-adv-x="1004" 
d="M289 -9c-153 0 -257 108 -257 253c0 151 102 256 257 256c104 0 178 -47 217 -108c41 61 117 108 215 108c176 0 265 -125 254 -296l-359 -1c14 -47 50 -74 100 -74c52 0 81 18 96 44l150 -23c-29 -86 -108 -159 -248 -159c-91 0 -166 45 -209 107
c-38 -60 -112 -107 -216 -107zM289 360c-65 0 -105 -38 -105 -116c0 -75 40 -115 105 -115c68 0 109 40 109 115c0 78 -41 116 -109 116zM616 291l204 1c-8 36 -41 68 -104 68c-51 0 -86 -26 -100 -69z" />
    <glyph glyph-name="onehalf" unicode="&#xbd;" horiz-adv-x="1000" 
d="M302 260h-147v259l-123 -93v112l147 117h123v-395zM715 82l2 -2c25 14 49 19 83 19h144v-108h-384c0 284 248 199 248 263c0 19 -20 30 -51 30c-26 0 -61 -12 -78 -39l-122 33c39 80 109 117 222 117c111 0 174 -52 174 -116c0 -187 -216 -123 -238 -197zM728 677
l-402 -677h-107l400 677h109z" />
    <glyph glyph-name="onequarter" unicode="&#xbc;" horiz-adv-x="1000" 
d="M913 201h46v-112h-46v-89h-138v89h-260v78l139 245l109 -9l-95 -202h107v201h138v-201zM307 260h-147v259l-123 -93v112l147 117h123v-395zM732 677l-402 -677h-107l400 677h109z" />
    <glyph glyph-name="onesuperior" unicode="&#xb9;" horiz-adv-x="425" 
d="M310 260h-147v259l-123 -93v112l146 117h124v-395z" />
    <glyph glyph-name="threequarters" unicode="&#xbe;" horiz-adv-x="1000" 
d="M927 201h46v-112h-46v-89h-138v89h-257v78l133 235h112l-95 -201h107v201h138v-201zM32 337l96 62c20 -25 72 -43 109 -43c34 0 54 9 54 36c0 23 -20 30 -46 30h-50v69h55c15 0 28 10 28 28c0 14 -17 28 -52 28c-25 0 -62 -9 -79 -36l-118 29c36 80 113 115 218 115
c115 0 171 -55 171 -98c0 -56 -29 -86 -80 -94v-4c51 -7 86 -40 86 -88c0 -75 -76 -120 -187 -120c-82 0 -159 23 -205 86zM774 677l-402 -677h-107l400 677h109z" />
    <glyph glyph-name="twosuperior" unicode="&#xb2;" horiz-adv-x="463" 
d="M190 342l2 -2c25 14 49 19 83 19h144v-108h-383c0 284 247 199 247 263c0 19 -20 30 -51 30c-26 0 -61 -12 -78 -39l-122 33c39 80 109 117 222 117c111 0 174 -52 174 -116c0 -187 -216 -123 -238 -197z" />
    <glyph glyph-name="threesuperior" unicode="&#xb3;" horiz-adv-x="469" 
d="M48 337l96 62c20 -25 72 -43 109 -43c34 0 54 9 54 36c0 23 -20 30 -46 30h-50v69h55c15 0 28 10 28 28c0 14 -17 28 -52 28c-25 0 -62 -9 -79 -36l-118 29c36 80 113 115 218 115c115 0 171 -55 171 -98c0 -56 -29 -86 -80 -94v-4c51 -7 86 -40 86 -88
c0 -75 -76 -120 -187 -120c-82 0 -159 23 -205 86z" />
    <glyph glyph-name="hungarumlaut" unicode="&#x2dd;" horiz-adv-x="536" 
d="M0 628l187 172l92 -112l-206 -149zM258 618l187 172l92 -112l-206 -149z" />
    <glyph glyph-name="approxequal" unicode="&#x2248;" horiz-adv-x="564" 
d="M181 308h-121c-28 106 47 170 134 155l149 -30c26 -5 43 9 36 33h121c31 -102 -39 -170 -125 -156l-159 30c-24 4 -40 -13 -35 -32zM181 100h-121c-28 106 47 170 134 155l149 -30c26 -5 43 9 36 33h121c31 -102 -39 -170 -125 -156l-159 30c-24 4 -40 -13 -35 -32z" />
    <glyph glyph-name="Eth" unicode="&#xd0;" horiz-adv-x="741" 
d="M372 0h-315v268h-77v125h77v285h315c199 0 343 -123 343 -335c0 -210 -144 -343 -343 -343zM222 393h101v-125h-101v-127h137c107 0 180 75 180 201c0 120 -80 194 -180 194h-137v-143z" />
    <glyph glyph-name="Lslash" unicode="&#x141;" horiz-adv-x="589" 
d="M565 0h-524v146l-42 -43l-78 78l120 123v374h163v-206l78 80l78 -78l-156 -161v-173h361v-140z" />
    <glyph glyph-name="lslash" unicode="&#x142;" horiz-adv-x="289" 
d="M228 456l62 64l78 -79l-140 -144v-297h-160v132l-61 -63l-78 79l139 143v387h160v-222z" />
    <glyph glyph-name="eth" unicode="&#xf0;" horiz-adv-x="584" 
d="M282 488c25 0 62 -8 86 -28l2 2c-17 45 -64 84 -126 110l-11 -48l-102 23l12 53c-18 3 -37 5 -56 6l27 152c22 -2 43 -5 63 -9l11 48l102 -23l-13 -55c188 -76 275 -243 275 -413c0 -192 -102 -315 -268 -315c-145 0 -256 98 -256 256c0 143 108 241 254 241zM290 121
c69 0 98 48 98 126c0 90 -44 116 -99 116c-60 0 -96 -44 -96 -116c0 -79 40 -126 97 -126z" />
    <glyph glyph-name="Yacute" unicode="&#xdd;" horiz-adv-x="645" 
d="M155 678h-200l280 -461v-217h162v217l278 461h-181l-171 -301zM210 808l187 172l92 -112l-206 -149z" />
    <glyph glyph-name="yacute" unicode="&#xfd;" horiz-adv-x="614" 
d="M392 99l6 -2c0 -101 -55 -140 -145 -140c-61 0 -136 17 -171 38l-42 -125c39 -30 137 -55 229 -55c160 0 269 111 269 265v408h-161v-261c0 -48 -29 -73 -88 -73c-56 0 -86 25 -86 73v261h-160v-280c0 -137 85 -198 194 -198c77 0 134 30 155 89zM199 618l187 172
l92 -112l-206 -149z" />
    <glyph glyph-name="ccedilla" unicode="&#xe7;" horiz-adv-x="557" 
d="M390 196l147 -17c-28 -121 -113 -188 -252 -188c-161 0 -257 109 -257 255c0 149 97 254 263 254c144 0 230 -76 246 -190l-145 -27c-10 46 -42 77 -108 77c-64 0 -104 -44 -104 -114c0 -71 37 -117 104 -117c61 0 92 28 106 67zM292 -191c-40 0 -103 10 -110 14l17 61
c23 -9 51 -14 74 -14c17 0 27 6 27 19c0 11 -8 18 -30 18c-21 0 -43 -4 -52 -6l9 106h102l-2 -39h13c61 0 95 -27 95 -70c0 -57 -58 -89 -143 -89z" />
    <glyph glyph-name="eacute" unicode="&#xe9;" 
d="M282 129c-49 0 -86 27 -100 73l359 1c9 171 -81 297 -254 297c-166 0 -262 -107 -262 -254c0 -157 110 -255 255 -255c139 0 218 69 247 155l-149 27c-15 -26 -44 -44 -96 -44zM385 288l-204 -1c14 45 51 73 102 73c66 0 94 -36 102 -72zM197 618l187 172l92 -112
l-206 -149z" />
    <glyph glyph-name="ecircumflex" unicode="&#xea;" 
d="M282 129c52 0 81 18 96 44l149 -27c-29 -86 -108 -155 -247 -155c-145 0 -255 98 -255 255c0 147 96 254 262 254c173 0 263 -126 254 -297l-359 -1c14 -46 51 -73 100 -73zM181 287l204 1c-8 36 -36 72 -102 72c-51 0 -88 -28 -102 -73zM490 570h-178l-41 60l-40 -60
h-155l121 164h169z" />
    <glyph glyph-name="edieresis" unicode="&#xeb;" 
d="M282 129c52 0 81 18 96 44l149 -27c-29 -86 -108 -155 -247 -155c-145 0 -255 98 -255 255c0 147 96 254 262 254c173 0 263 -126 254 -297l-359 -1c14 -46 51 -73 100 -73zM181 287l204 1c-8 36 -36 72 -102 72c-51 0 -88 -28 -102 -73zM66 641v10c0 57 43 85 89 85
s89 -28 89 -85v-10c0 -56 -43 -84 -89 -84s-89 28 -89 84zM323 641v10c0 57 43 85 89 85s89 -28 89 -85v-10c0 -56 -43 -84 -89 -84s-89 28 -89 84z" />
    <glyph glyph-name="iacute" unicode="&#xed;" horiz-adv-x="284" 
d="M62 0h160v488h-160v-488zM32 618l187 172l92 -112l-206 -149z" />
    <glyph glyph-name="icircumflex" unicode="&#xee;" horiz-adv-x="284" 
d="M222 0h-160v488h160v-488zM349 570h-178l-41 60l-40 -60h-155l121 164h169z" />
    <glyph glyph-name="idieresis" unicode="&#xef;" horiz-adv-x="284" 
d="M222 0h-160v488h160v-488zM-75 641v10c0 57 43 85 89 85s89 -28 89 -85v-10c0 -56 -43 -84 -89 -84s-89 28 -89 84zM182 641v10c0 57 43 85 89 85s89 -28 89 -85v-10c0 -56 -43 -84 -89 -84s-89 28 -89 84z" />
    <glyph glyph-name="ntilde" unicode="&#xf1;" horiz-adv-x="603" 
d="M553 0h-160v296c0 36 -23 68 -86 68c-61 0 -92 -32 -92 -68v-296h-160v488h157c1 -16 -1 -35 -4 -51l4 -2c23 33 76 65 158 65c125 0 183 -78 183 -168v-332zM206 544h-121c-28 106 48 174 134 155l139 -30c26 -6 43 9 36 33h121c31 -102 -40 -173 -125 -156l-149 30
c-24 5 -40 -13 -35 -32z" />
    <glyph glyph-name="uacute" unicode="&#xfa;" horiz-adv-x="600" 
d="M398 0h147v488h-161v-275c0 -48 -31 -78 -87 -78c-54 0 -87 30 -87 78v275h-160v-298c0 -137 90 -199 196 -199c75 0 119 35 140 80h3zM210 618l187 172l92 -112l-206 -149z" />
    <glyph glyph-name="ucircumflex" unicode="&#xfb;" horiz-adv-x="600" 
d="M545 0h-147l-9 71h-3c-21 -45 -65 -80 -140 -80c-106 0 -196 62 -196 199v298h160v-275c0 -48 33 -78 87 -78c56 0 87 30 87 78v275h161v-488zM507 570h-178l-41 60l-40 -60h-155l121 164h169z" />
    <glyph glyph-name="udieresis" unicode="&#xfc;" horiz-adv-x="600" 
d="M545 0h-147l-9 71h-3c-21 -45 -65 -80 -140 -80c-106 0 -196 62 -196 199v298h160v-275c0 -48 33 -78 87 -78c56 0 87 30 87 78v275h161v-488zM82 641v10c0 57 43 85 89 85s89 -28 89 -85v-10c0 -56 -43 -84 -89 -84s-89 28 -89 84zM339 641v10c0 57 43 85 89 85
s89 -28 89 -85v-10c0 -56 -43 -84 -89 -84s-89 28 -89 84z" />
    <glyph glyph-name="Adieresis" unicode="&#xc4;" horiz-adv-x="697" 
d="M199 141l-60 -141h-174l314 678h148l305 -678h-199l-58 141h-276zM340 469l-84 -195h164zM131 831v10c0 57 43 85 89 85s89 -28 89 -85v-10c0 -56 -43 -84 -89 -84s-89 28 -89 84zM388 831v10c0 57 43 85 89 85s89 -28 89 -85v-10c0 -56 -43 -84 -89 -84s-89 28 -89 84z
" />
    <glyph glyph-name="Aring" unicode="&#xc5;" horiz-adv-x="697" 
d="M139 0l60 141h276l58 -141h199l-305 678h-148l-314 -678h174zM256 274l84 195l80 -195h-164zM218 845c0 71 59 127 130 127s130 -56 130 -127s-59 -127 -130 -127s-130 56 -130 127zM308 845c0 -22 18 -39 40 -39c20 0 40 17 40 39c0 20 -20 38 -40 38
c-22 0 -40 -18 -40 -38z" />
    <glyph glyph-name="Ccedilla" unicode="&#xc7;" horiz-adv-x="722" 
d="M550 239l148 -59s-69 -189 -302 -189c-241 0 -366 149 -366 348c0 211 136 348 362 348c263 0 313 -202 313 -202l-161 -48s-27 93 -157 93c-126 0 -184 -78 -184 -191c0 -120 72 -192 187 -192c119 0 160 92 160 92zM374 -191c-40 0 -103 10 -110 14l17 61
c23 -9 51 -14 74 -14c17 0 27 6 27 19c0 11 -8 18 -30 18c-21 0 -43 -4 -52 -6l9 106h102l-2 -39h13c61 0 95 -27 95 -70c0 -57 -58 -89 -143 -89z" />
    <glyph glyph-name="Eacute" unicode="&#xc9;" horiz-adv-x="617" 
d="M55 0h532v141h-369v132h313v139h-313v127h364v139h-527v-678zM189 808l187 172l92 -112l-206 -149z" />
    <glyph glyph-name="Ntilde" unicode="&#xd1;" horiz-adv-x="752" 
d="M702 0h-168l-317 406l1 -406h-163v678h169l318 -407l-1 407h161v-678zM280 734h-121c-28 106 48 174 134 155l139 -30c26 -6 43 9 36 33h121c31 -102 -40 -173 -125 -156l-149 30c-24 5 -40 -13 -35 -32z" />
    <glyph glyph-name="Odieresis" unicode="&#xd6;" horiz-adv-x="757" 
d="M378 -9c-205 0 -346 139 -346 348c0 219 147 348 346 348c192 0 347 -121 347 -348c0 -210 -147 -348 -347 -348zM378 530c-114 0 -180 -76 -180 -191c0 -118 73 -191 180 -191c106 0 182 73 182 191c0 121 -79 191 -182 191zM161 831v10c0 57 43 85 89 85s89 -28 89 -85
v-10c0 -56 -43 -84 -89 -84s-89 28 -89 84zM418 831v10c0 57 43 85 89 85s89 -28 89 -85v-10c0 -56 -43 -84 -89 -84s-89 28 -89 84z" />
    <glyph glyph-name="Udieresis" unicode="&#xdc;" horiz-adv-x="699" 
d="M45 277v401h165v-394c0 -87 35 -137 137 -137c109 0 141 48 141 137v394h164v-403c0 -173 -99 -284 -306 -284c-206 0 -301 111 -301 286zM132 831v10c0 57 43 85 89 85s89 -28 89 -85v-10c0 -56 -43 -84 -89 -84s-89 28 -89 84zM389 831v10c0 57 43 85 89 85
s89 -28 89 -85v-10c0 -56 -43 -84 -89 -84s-89 28 -89 84z" />
    <glyph glyph-name="Atilde" unicode="&#xc3;" horiz-adv-x="697" 
d="M199 141l-60 -141h-174l314 678h148l305 -678h-199l-58 141h-276zM340 469l-84 -195h164zM253 734h-121c-28 106 48 174 134 155l139 -30c26 -6 43 9 36 33h121c31 -102 -40 -173 -125 -156l-149 30c-24 5 -40 -13 -35 -32z" />
    <glyph glyph-name="Otilde" unicode="&#xd5;" horiz-adv-x="757" 
d="M378 -9c-205 0 -346 139 -346 348c0 219 147 348 346 348c192 0 347 -121 347 -348c0 -210 -147 -348 -347 -348zM378 530c-114 0 -180 -76 -180 -191c0 -118 73 -191 180 -191c106 0 182 73 182 191c0 121 -79 191 -182 191zM283 734h-121c-28 106 48 174 134 155
l139 -30c26 -6 43 9 36 33h121c31 -102 -40 -173 -125 -156l-149 30c-24 5 -40 -13 -35 -32z" />
    <glyph glyph-name="Acircumflex" unicode="&#xc2;" horiz-adv-x="697" 
d="M199 141l-60 -141h-174l314 678h148l305 -678h-199l-58 141h-276zM340 469l-84 -195h164zM555 760h-178l-41 60l-40 -60h-155l121 164h169z" />
    <glyph glyph-name="Ecircumflex" unicode="&#xca;" horiz-adv-x="617" 
d="M587 0h-532v678h527v-139h-364v-127h313v-139h-313v-132h369v-141zM532 760h-178l-41 60l-40 -60h-155l121 164h169z" />
    <glyph glyph-name="Aacute" unicode="&#xc1;" horiz-adv-x="697" 
d="M139 0l60 141h276l58 -141h199l-305 678h-148l-314 -678h174zM256 274l84 195l80 -195h-164zM239 808l187 172l92 -112l-206 -149z" />
    <glyph glyph-name="Edieresis" unicode="&#xcb;" horiz-adv-x="617" 
d="M587 0h-532v678h527v-139h-364v-127h313v-139h-313v-132h369v-141zM91 831v10c0 57 43 85 89 85s89 -28 89 -85v-10c0 -56 -43 -84 -89 -84s-89 28 -89 84zM348 831v10c0 57 43 85 89 85s89 -28 89 -85v-10c0 -56 -43 -84 -89 -84s-89 28 -89 84z" />
    <glyph glyph-name="Iacute" unicode="&#xcd;" horiz-adv-x="292" 
d="M65 0h162v678h-162v-678zM36 808l187 172l92 -112l-206 -149z" />
    <glyph glyph-name="Icircumflex" unicode="&#xce;" horiz-adv-x="292" 
d="M227 0h-162v678h162v-678zM353 760h-178l-41 60l-40 -60h-155l121 164h169z" />
    <glyph glyph-name="Idieresis" unicode="&#xcf;" horiz-adv-x="292" 
d="M227 0h-162v678h162v-678zM-71 831v10c0 57 43 85 89 85s89 -28 89 -85v-10c0 -56 -43 -84 -89 -84s-89 28 -89 84zM186 831v10c0 57 43 85 89 85s89 -28 89 -85v-10c0 -56 -43 -84 -89 -84s-89 28 -89 84z" />
    <glyph glyph-name="Oacute" unicode="&#xd3;" horiz-adv-x="757" 
d="M378 -9c200 0 347 138 347 348c0 227 -155 348 -347 348c-199 0 -346 -129 -346 -348c0 -209 141 -348 346 -348zM378 530c103 0 182 -70 182 -191c0 -118 -76 -191 -182 -191c-107 0 -180 73 -180 191c0 115 66 191 180 191zM269 808l187 172l92 -112l-206 -149z" />
    <glyph glyph-name="Ocircumflex" unicode="&#xd4;" horiz-adv-x="757" 
d="M378 -9c-205 0 -346 139 -346 348c0 219 147 348 346 348c192 0 347 -121 347 -348c0 -210 -147 -348 -347 -348zM378 530c-114 0 -180 -76 -180 -191c0 -118 73 -191 180 -191c106 0 182 73 182 191c0 121 -79 191 -182 191zM585 760h-178l-41 60l-40 -60h-155l121 164
h169z" />
    <glyph glyph-name="Uacute" unicode="&#xda;" horiz-adv-x="699" 
d="M45 678v-401c0 -175 95 -286 301 -286c207 0 306 111 306 284v403h-164v-394c0 -89 -32 -137 -141 -137c-102 0 -137 50 -137 137v394h-165zM240 808l187 172l92 -112l-206 -149z" />
    <glyph glyph-name="Ucircumflex" unicode="&#xdb;" horiz-adv-x="699" 
d="M45 277v401h165v-394c0 -87 35 -137 137 -137c109 0 141 48 141 137v394h164v-403c0 -173 -99 -284 -306 -284c-206 0 -301 111 -301 286zM556 760h-178l-41 60l-40 -60h-155l121 164h169z" />
    <glyph glyph-name="egrave" unicode="&#xe8;" 
d="M282 129c-49 0 -86 27 -100 73l359 1c9 171 -81 297 -254 297c-166 0 -262 -107 -262 -254c0 -157 110 -255 255 -255c139 0 218 69 247 155l-149 27c-15 -26 -44 -44 -96 -44zM385 288l-204 -1c14 45 51 73 102 73c66 0 94 -36 102 -72zM210 790l187 -172l-73 -89
l-206 149z" />
    <glyph glyph-name="igrave" unicode="&#xec;" horiz-adv-x="284" 
d="M62 0h160v488h-160v-488zM74 790l187 -172l-73 -89l-206 149z" />
    <glyph glyph-name="ugrave" unicode="&#xf9;" horiz-adv-x="600" 
d="M398 0h147v488h-161v-275c0 -48 -31 -78 -87 -78c-54 0 -87 30 -87 78v275h-160v-298c0 -137 90 -199 196 -199c75 0 119 35 140 80h3zM205 790l187 -172l-73 -89l-206 149z" />
    <glyph glyph-name="oacute" unicode="&#xf3;" 
d="M282 -9c177 0 260 108 260 253c0 151 -83 256 -260 256c-155 0 -257 -105 -257 -256c0 -145 104 -253 257 -253zM282 360c68 0 109 -38 109 -116c0 -75 -41 -115 -109 -115c-65 0 -105 40 -105 115c0 78 40 116 105 116zM176 618l187 172l92 -112l-206 -149z" />
    <glyph glyph-name="ograve" unicode="&#xf2;" 
d="M282 -9c177 0 260 108 260 253c0 151 -83 256 -260 256c-155 0 -257 -105 -257 -256c0 -145 104 -253 257 -253zM282 360c68 0 109 -38 109 -116c0 -75 -41 -115 -109 -115c-65 0 -105 40 -105 115c0 78 40 116 105 116zM201 790l187 -172l-73 -89l-206 149z" />
    <glyph glyph-name="ocircumflex" unicode="&#xf4;" 
d="M282 -9c-153 0 -257 108 -257 253c0 151 102 256 257 256c177 0 260 -105 260 -256c0 -145 -83 -253 -260 -253zM282 360c-65 0 -105 -38 -105 -116c0 -75 40 -115 105 -115c68 0 109 40 109 115c0 78 -41 116 -109 116zM490 570h-178l-41 60l-40 -60h-155l121 164h169z
" />
    <glyph glyph-name="odieresis" unicode="&#xf6;" 
d="M282 -9c-153 0 -257 108 -257 253c0 151 102 256 257 256c177 0 260 -105 260 -256c0 -145 -83 -253 -260 -253zM282 360c-65 0 -105 -38 -105 -116c0 -75 40 -115 105 -115c68 0 109 40 109 115c0 78 -41 116 -109 116zM66 641v10c0 57 43 85 89 85s89 -28 89 -85v-10
c0 -56 -43 -84 -89 -84s-89 28 -89 84zM323 641v10c0 57 43 85 89 85s89 -28 89 -85v-10c0 -56 -43 -84 -89 -84s-89 28 -89 84z" />
    <glyph glyph-name="otilde" unicode="&#xf5;" 
d="M282 -9c-153 0 -257 108 -257 253c0 151 102 256 257 256c177 0 260 -105 260 -256c0 -145 -83 -253 -260 -253zM282 360c-65 0 -105 -38 -105 -116c0 -75 40 -115 105 -115c68 0 109 40 109 115c0 78 -41 116 -109 116zM188 544h-121c-28 106 48 174 134 155l139 -30
c26 -6 43 9 36 33h121c31 -102 -40 -173 -125 -156l-149 30c-24 5 -40 -13 -35 -32z" />
    <glyph glyph-name="aring" unicode="&#xe5;" horiz-adv-x="621" 
d="M411 0h155v488h-153c-1 -18 0 -34 5 -52l-6 -3c-12 25 -69 67 -132 67c-146 0 -255 -94 -255 -254c0 -158 105 -255 246 -255c69 0 118 39 134 73l6 -2c-2 -24 -2 -42 0 -62zM293 360c78 0 109 -50 109 -114c0 -70 -31 -117 -109 -117c-71 0 -105 48 -105 117
c0 64 34 114 105 114zM180 655c0 71 59 127 130 127s130 -56 130 -127s-59 -127 -130 -127s-130 56 -130 127zM270 655c0 -22 18 -39 40 -39c20 0 40 17 40 39c0 20 -20 38 -40 38c-22 0 -40 -18 -40 -38z" />
    <glyph glyph-name="atilde" unicode="&#xe3;" horiz-adv-x="621" 
d="M566 0h-155c-2 20 -2 38 0 62l-6 2c-16 -34 -65 -73 -134 -73c-141 0 -246 97 -246 255c0 160 109 254 255 254c63 0 120 -42 132 -67l6 3c-5 18 -6 34 -5 52h153v-488zM293 360c-71 0 -105 -50 -105 -114c0 -69 34 -117 105 -117c78 0 109 47 109 117
c0 64 -31 114 -109 114zM215 544h-121c-28 106 48 174 134 155l139 -30c26 -6 43 9 36 33h121c31 -102 -40 -173 -125 -156l-149 30c-24 5 -40 -13 -35 -32z" />
    <glyph glyph-name="adieresis" unicode="&#xe4;" horiz-adv-x="621" 
d="M566 0h-155c-2 20 -2 38 0 62l-6 2c-16 -34 -65 -73 -134 -73c-141 0 -246 97 -246 255c0 160 109 254 255 254c63 0 120 -42 132 -67l6 3c-5 18 -6 34 -5 52h153v-488zM293 360c-71 0 -105 -50 -105 -114c0 -69 34 -117 105 -117c78 0 109 47 109 117
c0 64 -31 114 -109 114zM93 641v10c0 57 43 85 89 85s89 -28 89 -85v-10c0 -56 -43 -84 -89 -84s-89 28 -89 84zM350 641v10c0 57 43 85 89 85s89 -28 89 -85v-10c0 -56 -43 -84 -89 -84s-89 28 -89 84z" />
    <glyph glyph-name="acircumflex" unicode="&#xe2;" horiz-adv-x="621" 
d="M566 0h-155c-2 20 -2 38 0 62l-6 2c-16 -34 -65 -73 -134 -73c-141 0 -246 97 -246 255c0 160 109 254 255 254c63 0 120 -42 132 -67l6 3c-5 18 -6 34 -5 52h153v-488zM293 360c-71 0 -105 -50 -105 -114c0 -69 34 -117 105 -117c78 0 109 47 109 117
c0 64 -31 114 -109 114zM517 570h-178l-41 60l-40 -60h-155l121 164h169z" />
    <glyph glyph-name="agrave" unicode="&#xe0;" horiz-adv-x="621" 
d="M411 0h155v488h-153c-1 -18 0 -34 5 -52l-6 -3c-12 25 -69 67 -132 67c-146 0 -255 -94 -255 -254c0 -158 105 -255 246 -255c69 0 118 39 134 73l6 -2c-2 -24 -2 -42 0 -62zM293 360c78 0 109 -50 109 -114c0 -70 -31 -117 -109 -117c-71 0 -105 48 -105 117
c0 64 34 114 105 114zM240 790l187 -172l-73 -89l-206 149z" />
    <glyph glyph-name="aacute" unicode="&#xe1;" horiz-adv-x="621" 
d="M411 0h155v488h-153c-1 -18 0 -34 5 -52l-6 -3c-12 25 -69 67 -132 67c-146 0 -255 -94 -255 -254c0 -158 105 -255 246 -255c69 0 118 39 134 73l6 -2c-2 -24 -2 -42 0 -62zM293 360c78 0 109 -50 109 -114c0 -70 -31 -117 -109 -117c-71 0 -105 48 -105 117
c0 64 34 114 105 114zM238 618l187 172l92 -112l-206 -149z" />
    <glyph glyph-name="HT" horiz-adv-x="0" 
 />
    </font>
</defs>
</svg>
